<svg xmlns="http://www.w3.org/2000/svg" width="740" height="147" fill="none"><path fill="#E8E2E2" d="M541.569 77.971c.374-.274 9.981-3.747 20.331-7.45a81.2 81.2 0 0 1 51.759-.983l61.347 19.35c3.626 1.145 5.39 5.24 3.73 8.66a6.23 6.23 0 0 1-6.474 3.448l-40.958-5.78c-3.986-.562-5.766 4.836-2.226 6.754l8.428 4.569a52.26 52.26 0 0 0 34.777 5.379l58.772-11.296a7.71 7.71 0 0 1 8.725 4.997 3.81 3.81 0 0 1-2.495 4.923l-79.211 23.828-3.168.685a53.2 53.2 0 0 1-23.883-.331l-72.674-17.804-39.598-.847 10.086-38.104h12.73z"/><path fill="#F2B714" d="m0 .972 530.874 75.337-8.074 69.834L0 76.287z"/><path fill="#080717" d="M478.139 142.225a.45.45 0 0 0 .445-.389l9.797-73.018a.45.45 0 0 0-.893-.118l-9.796 73.017a.45.45 0 0 0 .387.506q.03.004.06.004zm22.605-3.899a4.94 4.94 0 0 0 4.766-3.668 4.936 4.936 0 0 0-3.503-6.028 4.94 4.94 0 0 0-6.027 3.504 4.937 4.937 0 0 0 3.503 6.028c.421.11.845.164 1.261.164m.002-8.962a4.036 4.036 0 0 1 3.894 5.063 4.03 4.03 0 0 1-4.926 2.865 4.036 4.036 0 0 1-2.864-4.927 4.04 4.04 0 0 1 3.896-3.001m161.707-16.063c3.312 0 6.632-.312 9.913-.942l44.16-8.487a.45.45 0 0 0-.171-.884l-44.159 8.487a51.96 51.96 0 0 1-34.478-5.333l-8.427-4.569a.449.449 0 1 0-.429.79l8.427 4.569a52.9 52.9 0 0 0 25.162 6.367z"/></svg>