<svg xmlns="http://www.w3.org/2000/svg" width="154" height="122" fill="none"><rect width="151.469" height="29.81" x="1" y="1" fill="#fff" stroke="#F2B714" stroke-width="2" rx="14.905"/><path fill="#F9DB8A" d="M7.043 9.863C9.057 5.834 12.95 2.746 16.308 1h-4.431L6.64 3.014l-3.223 2.82-1.611 3.223-.403 5.237L1 20.739l1.611 4.029 2.82 3.625 2.82 1.209 6.446 1.611h127.298l4.834-1.611 2.015-2.82c-44.447.269-130.925 2.82-138.981-1.611C4.87 22.425 4.88 14.186 7.043 9.863"/><rect width="151.469" height="29.81" x="1" y="1" stroke="#F2B714" stroke-width="2" rx="14.905"/><path fill="#F9DB8A" stroke="#F2B714" stroke-width="2" d="M58.204 1h37.062v29.81H58.204z"/><path fill="#fff" stroke="#F2B714" stroke-width="2" d="M14 31h125.687v59.431c0 16.569-13.431 30-30 30H44c-16.569 0-30-13.431-30-30z"/><path fill="#F9DB8A" stroke="#F2B714" stroke-width="2" d="M58.313 31h37.062v89.431H58.313z"/><path fill="#F2B714" fill-opacity=".5" d="M56.299 120.028c-30.617-3.545-40.42-60.023-41.493-87.82v64.053c0 17.725 13.696 23.23 20.545 23.767z"/></svg>