<svg xmlns="http://www.w3.org/2000/svg" width="130" height="86" fill="none"><path fill="#F9DB8A" fill-rule="evenodd" d="M117.448 12.548c-6.908-6.908-18.108-6.908-25.016 0L56.82 48.158c-6.908 6.909-6.908 18.109 0 25.017s18.108 6.908 25.016 0l35.611-35.611c6.908-6.908 6.908-18.108 0-25.016m-6.637 7.036a8.303 8.303 0 0 0-11.742 0L63.627 55.025A8.303 8.303 0 0 0 75.37 66.767l35.442-35.442a8.303 8.303 0 0 0 0-11.741" clip-rule="evenodd"/><path fill="#F2B714" d="m99.069 19.584.707.707zM63.627 55.025l-.707-.707zm29.512-41.77c6.517-6.518 17.084-6.518 23.602 0l1.414-1.414c-7.299-7.299-19.132-7.299-26.43 0zm-35.611 35.61 35.61-35.61-1.413-1.414-35.611 35.61zm0 23.603c-6.517-6.518-6.517-17.085 0-23.602l-1.414-1.414c-7.299 7.298-7.299 19.131 0 26.43zm23.602 0c-6.518 6.517-17.085 6.517-23.602 0l-1.414 1.414c7.298 7.298 19.132 7.298 26.43 0zm35.611-35.611L81.13 72.467l1.414 1.415 35.611-35.61zm0-23.602c6.517 6.517 6.517 17.084 0 23.602l1.414 1.414c7.298-7.299 7.298-19.132 0-26.43zm-16.965 7.036a7.3 7.3 0 0 1 10.327 0l1.415-1.415a9.303 9.303 0 0 0-13.156 0zM64.335 55.732l35.441-35.441-1.414-1.415L62.92 54.319zm0 10.328a7.303 7.303 0 0 1 0-10.328l-1.415-1.414a9.303 9.303 0 0 0 0 13.156zm10.327 0a7.303 7.303 0 0 1-10.327 0l-1.415 1.414a9.303 9.303 0 0 0 13.156 0zm35.441-35.442L74.662 66.06l1.414 1.414 35.442-35.442zm0-10.327a7.3 7.3 0 0 1 0 10.327l1.415 1.414a9.3 9.3 0 0 0 0-13.155z"/><path fill="#F9DB8A" fill-rule="evenodd" d="M12.508 12.508c-6.908 6.908-6.908 18.108 0 25.016l35.61 35.611c6.909 6.908 18.109 6.908 25.017 0s6.908-18.108 0-25.016l-35.61-35.61c-6.909-6.909-18.109-6.909-25.017 0m7.036 6.637a8.303 8.303 0 0 0 0 11.742l35.441 35.441a8.302 8.302 0 1 0 11.742-11.741L31.285 19.145a8.303 8.303 0 0 0-11.741 0" clip-rule="evenodd"/><path fill="#F2B714" d="M13.215 36.817c-6.517-6.517-6.517-17.084 0-23.602l-1.414-1.414c-7.299 7.298-7.299 19.132 0 26.43zm35.611 35.61-35.61-35.61-1.415 1.414 35.61 35.611zm23.602 0c-6.518 6.518-17.084 6.518-23.602 0l-1.414 1.415c7.298 7.299 19.132 7.299 26.43 0zm0-23.601c6.517 6.517 6.517 17.085 0 23.602l1.414 1.414c7.299-7.298 7.299-19.132 0-26.43zm-35.61-35.61 35.61 35.61 1.414-1.414L38.232 11.8zm-23.603 0c6.518-6.518 17.085-6.518 23.602 0l1.414-1.415c-7.298-7.299-19.132-7.299-26.43 0zm7.036 16.964a7.303 7.303 0 0 1 0-10.328l-1.414-1.414a9.303 9.303 0 0 0 0 13.156zm35.441 35.44L20.251 30.18l-1.414 1.414 35.441 35.442zm10.328 0a7.3 7.3 0 0 1-10.328 0l-1.414 1.415a9.303 9.303 0 0 0 13.156 0zm0-10.327a7.3 7.3 0 0 1 0 10.327l1.414 1.415a9.303 9.303 0 0 0 0-13.156zM30.578 19.852 66.02 55.294l1.414-1.414-35.441-35.442zm-10.327 0a7.303 7.303 0 0 1 10.327 0l1.415-1.414a9.303 9.303 0 0 0-13.156 0z"/></svg>