<svg xmlns="http://www.w3.org/2000/svg" width="96" height="100" fill="none"><path fill="#08763C" fill-rule="evenodd" d="M80.483 8.37c-4.313-4.313-11.306-4.313-15.62 0L42.63 30.604c-4.313 4.313-4.313 11.306 0 15.62 4.314 4.313 11.306 4.313 15.62 0l22.234-22.235c4.313-4.313 4.313-11.306 0-15.619m-4.144 4.393a5.184 5.184 0 0 0-7.331 0L46.879 34.89a5.184 5.184 0 0 0 7.331 7.331l22.13-22.127a5.184 5.184 0 0 0 0-7.331" clip-rule="evenodd"/><path fill="#08763C" fill-rule="evenodd" d="M14.962 8.345c-4.313 4.313-4.313 11.306 0 15.62l22.234 22.234c4.313 4.313 11.306 4.313 15.62 0 4.313-4.313 4.313-11.306 0-15.62L30.58 8.345c-4.313-4.313-11.306-4.313-15.619 0m4.393 4.144a5.184 5.184 0 0 0 0 7.331l22.129 22.13a5.184 5.184 0 0 0 7.331-7.331l-22.128-22.13a5.184 5.184 0 0 0-7.331 0" clip-rule="evenodd"/><path fill="#14914F" d="M8.662 43.797h78.474v25.838c0 16.569-13.431 30-30 30H38.661c-16.568 0-30-13.431-30-30z"/><path fill="#13864A" d="M36.329 43.797h23.14v55.838h-23.14z"/><rect width="94.572" height="18.613" x=".613" y="25.185" fill="#0A7A3F" rx="9.306"/><path fill="#13864A" d="M36.329 25.185h23.14v18.613h-23.14z"/></svg>