<svg xmlns="http://www.w3.org/2000/svg" width="525" height="151" fill="none"><g clip-path="url(#a)"><path fill="#E8E2E2" d="M73.81 41.016 58.736 73.734l3.199 1.474c5.855 2.697 12.789.138 15.487-5.718L86.3 50.22z"/><path fill="#E8E2E2" d="M70.352 41.529 42.304 64.133l2.21 2.743c4.045 5.02 11.394 5.809 16.414 1.764l16.52-13.313z"/><path fill="#E8E2E2" d="m29.468 40.35 28.178-10.402L72.699 70.72a43.37 43.37 0 0 0 22.535 24.366l34.45 22.587h18.843l.732-44.865h-19.575l-18.146-54.772-42.735-9.775-56.92 21.013 1.324 3.583c2.421 6.56 9.701 9.914 16.26 7.492"/><path fill="#E8E2E2" d="M65.091 37.952 31.298 50.428l1.22 3.305c2.233 6.047 8.946 9.14 14.993 6.908l19.903-7.348z"/><path fill="#FFCD00" d="M135.18 0 15.934 45.062 0 61.015l21.465 1.821 119.247-45.062.098-.523a18.93 18.93 0 0 0-5.629-17.25z"/><path fill="#080717" d="m134.834 19.72-.006.003a.26.26 0 0 1-.331-.161l-5.675-16.54a.265.265 0 0 1 .161-.33.26.26 0 0 1 .331.161l5.675 16.54a.26.26 0 0 1-.156.328zM6.988 54.019 0 61.016l9.88.837z"/><path fill="#E8E2E2" d="M90.29 50.234 43.625 28.736l-.093.248a17.845 17.845 0 0 0 7.225 21.417l19.81 14.076 4.011 10.842 15.71-25.085z"/><path fill="#080717" d="M74.67 75.564a.26.26 0 0 1-.335-.153l-3.983-10.767-19.746-14.03c-7.263-4.55-10.345-13.688-7.318-21.721l.094-.248a.26.26 0 0 1 .351-.145L90.398 50a.26.26 0 0 1-.218.472L43.77 29.089c-2.933 7.8.062 16.669 7.125 21.093l19.823 14.086q.066.047.094.122l4.01 10.842a.26.26 0 0 1-.153.335z"/><path fill="#080717" d="M46.377 61.041a.26.26 0 0 1-.304-.097.26.26 0 0 1 .067-.362l9.58-6.574a.26.26 0 1 1 .294.43l-9.58 6.573a.3.3 0 0 1-.057.03m15.087 7.292a.26.26 0 0 1-.328-.35l3.382-7.484a.26.26 0 0 1 .474.215l-3.381 7.484a.26.26 0 0 1-.147.137zm87.717 1.447v60.06L524.5 151.16V89.5z"/><path fill="#D5D5CB" d="M161.836 123.14a3.66 3.66 0 0 1-3.655 3.656 3.66 3.66 0 0 1-3.656-3.656 3.66 3.66 0 0 1 3.656-3.656 3.66 3.66 0 0 1 3.655 3.656m-6.666 0c0 1.66 1.35 3.011 3.011 3.011 1.66 0 3.01-1.35 3.01-3.011a3.013 3.013 0 0 0-3.01-3.011 3.013 3.013 0 0 0-3.011 3.011"/></g><defs><clipPath id="a"><path fill="#fff" d="M0 0h525v151H0z"/></clipPath></defs></svg>