<svg xmlns="http://www.w3.org/2000/svg" id="Layer_2" data-name="Layer 2" viewBox="0 0 295.34 94"><defs><style>.cls-1{fill:#fff}</style></defs><g id="Layer_1-2" data-name="Layer 1"><g id="Artwork_12" data-name="Artwork 12"><path d="m238.73 25.39-.43-.13c1.66-5.32 6.52-8.9 12.1-8.9s10.39 3.54 12.12 8.81l-.42.14c-1.67-5.09-6.37-8.51-11.7-8.51s-10.07 3.45-11.67 8.59" class="cls-1"/><path d="M250.13 16.58V3.02h-.49v13.6zm6.6-7.85-.58 1.29-3.03 6.87-.49-.09 3.17-7.13.53-1.34zm3.75 3.75-.85 1.02-3.79 4.33.4.22 3.7-4.23.9-.99zm-1.07 7.89 8.69-4.91-.22-.44-8.83 4.99zm-12.09-3.39-.49.13-3.25-7.44-.58-1.3.36-.35.58 1.29zm-8.51-4.41.89.98 4.24 4.86.4-.27-4.33-4.9-.85-1.03zm2.32 8.16-9.37-5.27.23-.44 9.45 5.35zm20.51 2.85 18.32-2.41-.09-.44-18.46 2.45zm-22.34-.13-18.95-2.72-.05.44 18.78 2.72zm31.74 5.89 1.21.27 6.95 1.65 1.34.35v.36l-.13.58-1.21-.27-6.33-1.51-1.2-.27m-42.14-1.48-.71 1.16-8.74 2.36-.27-.93zm-9.72 15.48-1.03 1.69c-.54.27-1.07.58-1.65.89-1.43.8-2.9 1.6-3.92 2.14-.58.31-.98.54-1.25.67-.13.05-.18.09-.22.09l-.18-.4-.04-.13-.13-.31c.09-.04.49-.27 1.12-.62 1.29-.67 3.52-1.87 5.71-3.12.54-.31 1.12-.58 1.61-.89m8.1 7.96-7.76 11.34v-1.7l6.82-9.95zm6.24 20.47h1.03l-.32.94-.25.85-1.13.31.36-1.16zm2.85-6.11-.04.14-.04.13-.05.18h-.98l.04-.22.05-.14.04-.09zm3.17-10.3-.85 2.81-.05.09-.04.13c-.31 0-.62-.05-.98 0l.04-.18.04-.05.94-3.08.89.27Zm10.21 7.27v.94c-.09.13-.18.31-.27.45 0 .05-.04.09-.04.13l-.04.09s-.04.09-.04.13v.04c-.09.18-.13.36-.13.53v.13l-.04.09v.04l-.04.31.04.45h.58v.13h-.94v-2.5l-.04-6.3c.27.05.58.09.85.09h.09l.05 5.23Zm.14 23.26h-.99l-.04-13.18-.05-.94h.99v.94zm10.87-27.54c-.31 0-.62 0-.94.05l-.05-.13-.04-.09-.8-2.59c.27-.09.53-.18.85-.31l.89 2.85.05.09zm2.46 7.76h-.98l-.09-.23-.05-.13v-.09l.94-.04.04.13.05.13zm2.49 7.93h-.98l-.44-1.33-.27-.94h.98l.27.94zm14.01-12.35-.76.54-7.22-11.01c.31-.13.62-.22.89-.31l7.09 10.79Zm-.54-17.74v.05l1.47.85 5.57 3.3 1.21.71.67-.67-1.21-.71-7.13-4.24-1.47-.85v-.04z" class="cls-1"/><path d="m251.78 0 11.77 11.77h19.66v19.66l12.13 12.13V0zm42.36 40.71-9.77-9.76V10.61h-20.33l-9.41-9.41h39.51zM204.96 0v42.63l11.59-11.59V11.77h19.26L247.58 0h-42.63Zm30.37 10.61H215.4v19.93l-9.28 9.23V1.2h38.61l-9.41 9.41Zm.89 67.24h-19.66V58.23l-11.59-11.59v42.89h42.9l-11.64-11.68Zm-30.1-28.4 9.27 9.27v20.33h20.33l9.32 9.32h-38.93V49.44Zm77.1 9.19v19.22h-19.26l-11.64 11.68h43.03V46.51zm10.92 29.74h-39.02l9.32-9.32h19.93V59.13l9.77-9.76v39.02Z" class="cls-1"/><path d="M280.54 32.55v-18.1h-18.06l-1.65-1.61-11.15-11.15-6.33 6.33-.36.36-3.84 3.83-.36.36-1.92 1.87h-17.66v17.7l-12.49 12.49 4.77 4.81.45.45 7.27 7.22v18.1h18.06l12.26 12.26.54.49.4-.4.04-.05 12.35-12.31h17.66V57.5l7.54-7.49.67-.67 4.28-4.32-12.49-12.49Zm-1.34 24.44v16.9h-16.9l-12.22 12.22-12.22-12.22h-17.3v-17.3l-11.95-11.95 11.95-11.95V15.78h16.9l6.46-6.47 5.71-5.71.04-.04 6.11 6.11.36.36 3.48 3.48 2.27 2.27h17.3v17.3l11.95 11.95-11.95 11.95Z" class="cls-1"/><path d="M257.04 42.14c-.31-.71-.76-1.29-1.38-1.83h-.04c-.09.36-.18.71-.18 1.03.67.53 1.07.98 1.2 1.29q.06.135 0 .27c-.18.4-.67.89-1.16 1.11-.31.13-1.2.36-1.65-.62-.04-.18-.09-.54-.09-.89l-.31-.04c-.09.67 0 1.2.18 1.69.4.89 1.25 1.29 2.23.89.62-.27 1.25-.94 1.38-1.6.05-.49 0-.94-.18-1.29m-3.48-2.69-.22.89c.36.04.71.13 1.07.22.09-.27.18-.58.22-.85-.36-.13-.67-.22-1.07-.27m4.64.95c-.4-.89-.8-1.83-1.34-2.76l-.09-.04c-.09.27-.22.53-.31.85.54.98 1.03 1.96 1.43 2.94.22.45.31.8.4 1.16l.18.04c.09-.27.13-.49.18-.71.04-.22-.13-.71-.45-1.47m-.89-4.25h-.09c-.09.22-.27.4-.54.49-.45.22-.89.22-1.16.36-.27.09-.36.36-.27.71l.45.27h.04l.09-.45.04-.04c.18-.09.53-.13.94-.27.22-.13.4-.27.54-.49zm4.37 3.79-.09.05c-.54.22-.94-.05-1.43-.49l-.09.05c-.05.27-.05.53-.05.85.31.27.62.49.89.62.04.31 0 .71-.18 1.11-.22.4-.49.71-.94.89-.09.04-.27.09-.45.13l-.04.27c.67.09 1.16.05 1.52-.09.4-.18.62-.58.71-1.11.09-.31.09-.71-.09-1.16.13-.04.27-.04.49-.13h.04l.09-.05-.4-.94Z" class="cls-1"/><path d="m262.26 35.36-.31.71c.31.09.58.18.85.31.13-.22.22-.45.27-.67-.22-.13-.49-.27-.8-.36m2.66 3.22-.09.05c-.22.09-.45.18-.76.22.04-.36 0-.71-.13-1.07-.13-.31-.36-.58-.67-.8-.22-.13-.45-.18-.62-.09-.27.09-.45.36-.58.67-.22.49-.27.98-.04 1.47.09.22.18.4.31.58-.18.13-.36.22-.58.31l-.09.04c-.22.09-.22.4-.13.62.09.18.22.36.4.36h.04l.09-.04.05-.04c.58-.22.98-.53 1.29-.85.76-.09 1.11-.13 1.83-.45l.05-.04-.36-.94Zm-1.73.49c-.4.04-.71-.05-.89-.27 0-.4.22-.8.54-.94.31-.18.76.18.85.4.09.13-.09.49-.49.8m-1.98-3.2-.31.71c.31.09.58.18.85.31.13-.22.22-.44.27-.71-.22-.09-.49-.22-.8-.31" class="cls-1"/><path d="M265.92 36.96c-.22-.45-.4-.89-.58-1.2l.31-.53c-.58-.4-.94-.67-1.07-.98l-.09-.05c-.09.22-.18.4-.22.54-.04.13-.04.31.05.49.09.22.71 1.2 1.2 2.36.09.22.13.36.09.49-.09.18-.31.36-.62.49h-.05c-.27.13-.27.4-.18.62s.27.4.49.36l.04-.04h.09c.45-.22.62-.49.71-.8.04-.22.04-.4.04-.62 0-.36-.04-.67-.22-1.12m1.83-.59c-.4-.89-.8-1.83-1.34-2.81h-.09c-.13.27-.22.53-.31.85.54.98.98 1.92 1.43 2.94.18.45.31.8.4 1.16h.13c.09-.22.18-.49.18-.71.05-.18-.09-.71-.4-1.43" class="cls-1"/><path d="m283.04 49.09-9.5 3.39-.89.31-12.04 4.28-.85.31-4.68 1.65c-.27.22-1.16.98-2.32.98h-.27c-.8-.09-1.52-.53-2.14-1.29-.22.22-.58.49-.94.67-.85.4-1.96.58-3.48-.22l-5.98-1.92-.89-.27-11.68-3.74-.94-.27-10.84-3.48 1.51-2.41 1.07-1.69 9.36-14.89.76-1.16 2.36-3.75 3.57-1.6.18-.09.36.8-1.29.58-2.18.98-2.5 3.92-9.01 14.31-1.03 1.69-1.78 2.81 9.99 3.17.94.31 18.37 5.89c2.1 1.11 3.26-.04 3.61-.49.04-.09.09-.13.09-.13l.31-.45.04-.09.04.04.36.49s0 .05.04.05c.54.8 1.12 1.25 1.78 1.34 1.07.09 1.92-.8 1.96-.8l.13-.13 27.07-9.59c-.67-1.2-1.34-2.36-1.92-3.48-.36-.53-.62-1.07-.89-1.6-3.57-6.38-5.84-10.43-7.27-13.02-.22-.45-.45-.8-.62-1.16-1.16-2.14-1.6-2.99-1.74-3.3-.27-.18-1.47-.58-2.72-.98-.4-.09-.76-.22-1.11-.31l.27-.89s.09.04.13.04c3.84 1.16 4.19 1.47 4.24 1.78.18.31.94 1.78 2.14 3.92.18.36.36.71.62 1.16 2.01 3.7 4.9 8.87 7.54 13.65.31.53.62 1.07.89 1.6.54.89 1.02 1.78 1.47 2.63l.27.45Z" class="cls-1"/><path d="M250.71 28.18s-.18-.27-.49-.58c-1.12-1.11-4.19-3.48-9.54-2.63-.67.09-1.29.09-1.83.09-.18 0-.31 0-.45-.05-2.5-.09-3.43-1.03-3.43-1.03l-.45-.45-.27.45-.76 1.29-12.84 21.76-.13.22.13.22c.04.13 2.23 4.1 11.86 3.25 9.45-.89 15.65 1.07 17.39 5.49 0 .04.04.04.04.09l.36.98v.04l.49 1.29V28.25l-.09-.09Zm-.8 26.17c-2.14-3.08-6.73-4.73-13.29-4.73-1.29 0-2.72.09-4.19.22-7.71.67-10.3-1.87-10.88-2.59l13.2-22.29c.8.49 2.63 1.29 6.07.89 5.71-.89 8.56 2.1 9.1 2.72v25.77Z" class="cls-1"/><path d="m266.58 25.06-.58-.98-.13-.18-.18-.31-.4.4c-.09.04-.98.85-2.77 1.16v.04c-.13 0-.31 0-.49.05-.76.04-1.74.04-2.81-.18-2.9-.58-5.98-.13-7.8 1.16-.58.4-.98.85-1.2 1.38-.18.27-.27.53-.31.85v29.88l.4-.98.09-.09.36-.89s0-.04.04-.09c.31-.62 2.81-5.22 9.27-5.22 1.43 0 2.81.04 4.19.13 5.93.18 11.55.36 15.07-3.17l.22-.27-12.98-22.7Zm-2.27 25.24c-1.38-.09-2.81-.13-4.24-.13-5.13 0-7.98 2.72-9.27 4.46V28.5c.13-.71.67-1.25 1.11-1.56 1.16-.8 2.9-1.25 4.77-1.25.8 0 1.6.09 2.36.27 3.35.67 5.53-.4 6.42-.98l12.98 22.65c-3.26 3.03-8.56 2.85-14.13 2.67" class="cls-1"/><path d="M261.86 53.28s-6.02-1.43-7.8 3.12l-.4 1.11 1.03-.53c.09-.04 5.04-2.72 7.09-2.81l3.08-.13-2.99-.76Zm-6.65 2.73c.56-1.84 3.63-2.53 4.04-1.89-1.25.45-3.1 1.45-4.04 1.89m-8.51.4c-1.78-4.55-7.76-3.12-7.8-3.12l-2.99.76 3.08.13c2.05.09 7 2.76 7.04 2.81l1.07.53zm-5.49-2.33c1.42-.27 3.52.05 3.88 1.82-.94-.45-2.67-1.38-3.88-1.82M251.78 0l11.77 11.77h19.66v19.66l12.13 12.13V0zm42.36 40.71-9.77-9.76V10.61h-20.33l-9.41-9.41h39.51zM204.96 0v42.63l11.59-11.59V11.77h19.26L247.58 0h-42.63Zm30.37 10.61H215.4v19.93l-9.28 9.23V1.2h38.61l-9.41 9.41Zm.89 67.24h-19.66V58.23l-11.59-11.59v42.89h42.9l-11.64-11.68Zm-30.1-28.4 9.27 9.27v20.33h20.33l9.32 9.32h-38.93V49.44Zm77.1 9.19v19.22h-19.26l-11.64 11.68h43.03V46.51zm10.92 29.74h-39.02l9.32-9.32h19.93V59.13l9.77-9.76v39.02Zm-59.5-52.75c-.11-.24-.26-.49-.46-.75l-.65.4c.17.24.33.48.48.73.24-.1.45-.23.63-.38m-1.11-.21c-.11-.24-.26-.49-.46-.75l-.65.4c.16.24.32.48.48.73.24-.1.45-.23.63-.38m2.97 2.2a5.4 5.4 0 0 0-.62-.75l-.63.52c.24.25.46.49.63.72.24-.12.44-.28.61-.5" class="cls-1"/><path d="m244.33 37.45-.09-.04c-.18.09-.36.18-.49.27-.09.09-.18.22-.22.44s-.13 1.34-.4 2.59c-.09.27-.13.4-.22.45-.18.13-.45.13-.8.04h-.04l-.09-.04c-.58-.13-.85-.36-.76-.71.04-.13.13-.36.31-.58l-.04-.04c-.18.04-.31.09-.49.13-.13.22-.27.49-.45.62-.13.13-.31.18-.58.13-.18-.04-.22-.18-.18-.36.04-.13.18-.36.4-.62l-.04-.04c-.18 0-.31.04-.45.09-.22.18-.31.4-.53.53-.13.09-.31.13-.54.09-.18-.04-.27-.13-.22-.31.04-.13.22-.36.45-.58l-.04-.04c-.18 0-.36.04-.49.09-.22.18-.4.36-.58.4-.22.13-.54.13-.98 0h-.13c-.22-.04-.4-.18-.54-.27-.18-.18-.18-.36-.13-.58.04-.09.09-.22.22-.45h-.04c-.18.04-.36.09-.49.13-.13.22-.27.53-.58.62-.18.05-.4.09-.76 0l-.04-.04s0 .04-.05.04v-.04h-.04c-.31-.05-.45-.13-.58-.31-.09-.18-.04-.49.04-.89.18-.76.31-1.34.4-1.83l-.09-.04c-.18.09-.4.22-.62.31l-.04.27c-.76.22-1.43.49-1.83.98-.22.27-.31.49-.4.71-.09.53.36.8.85.94.36.09.67.09 1.02.04.13.49.36.67 1.03.8l.04.04h.09q.675.135 1.2-.27h.04c.18.49.58.67 1.07.8h.04l.09.05c.4.09.8.04 1.16-.13.04.27.22.45.49.49.36.09.62 0 .98-.22.04.31.22.49.49.58.31.04.62-.04.98-.27h.04c.09.36.49.58 1.07.71l.09.04h.05c.49.13.8 0 1.07-.22.13-.13.27-.27.4-.45.18-.31.31-.62.4-1.07.13-.45.22-.94.31-1.29l.53-.27c-.27-.67-.36-1.11-.27-1.43m-11.37 1.26c-.22 0-.45-.04-.71-.09-.27-.05-.54-.18-.49-.36.04-.18.62-.45 1.43-.58-.04.27-.13.62-.22 1.02m12.64 2.36c.22-.95.43-1.95.57-3.04l-.08-.06c-.24.14-.49.3-.75.49-.12 1.11-.31 2.17-.56 3.24-.11.47-.21.83-.34 1.17l.1.1c.22-.16.41-.31.56-.48.15-.14.32-.65.5-1.42m2.42-.43c-.31-.09-.62 0-.98.22-.31.27-.54.58-.62.98-.13.58.13 1.12.98 1.29.18.05.45.09.58.09-.22.22-.54.45-.94.62-.45.18-.94.22-1.38.13-.22-.04-.4-.13-.58-.22l-.18.22c.45.45.94.8 1.43.89.4.09.85 0 1.43-.45.4-.4.76-.85.94-1.56.27-1.16-.09-2.1-.67-2.23m-.23 1.67c-.58-.13-.89-.45-.85-.67.04-.18.31-.31.67-.22.31.05.58.49.62.98-.13-.04-.27-.04-.45-.09m7.87-1.96-.06.02c-.09.36-.15.69-.19 1.01.7.54 1.08.97 1.22 1.29.04.1.04.19 0 .28-.16.39-.65.88-1.15 1.09-.32.13-1.23.37-1.64-.59-.08-.2-.12-.54-.1-.93h-.33c-.08.64-.02 1.2.18 1.66.39.92 1.26 1.28 2.21.88.62-.26 1.24-.9 1.42-1.61.02-.46-.04-.93-.18-1.27-.31-.72-.79-1.31-1.38-1.83m-1.06-.59c-.32-.12-.67-.2-1.06-.26l-.22.88c.35.06.71.15 1.06.25.12-.3.19-.59.22-.87m1.08-1.71.08-.03.05-.41s.04-.04.09-.06c.17-.07.52-.13.91-.29.22-.09.4-.25.52-.49l-.04-.56h-.07c-.11.23-.29.39-.53.5-.46.2-.91.22-1.18.33-.29.12-.37.38-.25.75l.41.27Zm1.19-.4h-.1c-.11.25-.22.52-.32.83.55.97 1.02 1.95 1.44 2.95.19.45.32.8.41 1.15l.14.03q.135-.39.18-.72c.04-.2-.12-.71-.43-1.44-.38-.9-.79-1.83-1.31-2.8m5.14-1.43c-.23-.13-.5-.24-.81-.34l-.29.71c.27.1.54.2.81.31.13-.22.23-.45.28-.68m1.04-.48c-.23-.13-.5-.24-.81-.34l-.29.71c.27.1.54.2.81.31.13-.22.23-.45.28-.68" class="cls-1"/><path d="M265.92 36.96c-.22-.45-.4-.89-.58-1.2l.31-.53c-.58-.4-.94-.67-1.07-.98l-.09-.04c-.09.22-.18.4-.22.53s-.04.31.05.49c.09.22.71 1.2 1.2 2.36.09.22.13.36.09.49-.09.18-.31.36-.62.49h-.05l-.09.04c-.22.09-.45.18-.76.22.04-.36 0-.71-.13-1.07-.13-.31-.36-.58-.67-.8-.22-.13-.45-.18-.62-.09-.27.09-.45.36-.58.67-.22.49-.27.98-.04 1.47.09.22.18.4.31.58-.18.13-.36.22-.58.31l-.09.05-.09.04c-.54.22-.94-.04-1.43-.49l-.09.04c-.05.27-.05.53-.05.85.31.27.62.49.89.62.05.31 0 .71-.18 1.12-.22.4-.49.71-.94.89-.09.04-.27.09-.45.13l-.04.27c.67.09 1.16.04 1.52-.09.4-.18.62-.58.71-1.11.09-.31.09-.71-.09-1.16.13-.04.27-.04.49-.13h.04l.09-.04.05-.05c.58-.22.98-.53 1.29-.85.76-.09 1.11-.13 1.83-.45l.04-.04h.09c.45-.22.62-.49.71-.8.05-.22.05-.4.05-.62 0-.36-.05-.67-.22-1.11m-2.71 2.09c-.4.04-.71-.04-.89-.27 0-.4.22-.8.54-.94.31-.18.76.18.85.4.09.13-.09.49-.49.8m4.52-2.66c-.38-.9-.79-1.83-1.32-2.8h-.1c-.11.24-.22.52-.32.83.55.97 1.02 1.95 1.44 2.95.19.45.32.8.41 1.15l.14.03c.09-.26.15-.49.18-.72.04-.21-.12-.71-.43-1.44m-4.94 30.67-8.07.22h8.16zm12.09-.31c-.18-.09-.4-.18-.58-.18-.36-.18-.71-.22-1.11-.22h-46.28c-.4 0-.8.09-1.2.22-.18.04-.36.13-.54.22-1.2.62-2.01 1.87-2.01 3.3 0 2.1 1.69 3.79 3.74 3.79h46.28c2.05 0 3.75-1.69 3.75-3.79 0-1.43-.85-2.72-2.05-3.34m-1.7 6.2H226.9c-1.56 0-2.81-1.29-2.81-2.85s1.25-2.81 2.81-2.81h46.28c1.56 0 2.81 1.25 2.81 2.81s-1.25 2.85-2.81 2.85" class="cls-1"/><path d="M275.64 66.57c-.49-1.34-1.61-2.36-2.99-2.81-.49-1.03-1.69-1.56-1.74-1.6h-.09c-.13-.36-.36-.58-.49-.67l-.09-.09-.36-.8c-.27-.54-.76-.89-1.34-.94-1.52-.13-4.37-.4-7.22-.36-.31 0-.62 0-.94.05-1.78.04-3.48.22-4.9.62-2.94.8-4.41 2.54-5.08 3.83-.13.13-.18.31-.22.45-.13.22-.22.4-.22.53-.13.27-.22.49-.27.71 0 .05-.04.05-.04.05v-.18c-.04-.09-.09-.18-.13-.27V65l-.04-.09v-.13c-.4-1.16-1.78-3.75-5.57-4.82-1.29-.4-2.9-.58-4.55-.62-.31 0-.67-.05-.98 0-2.99-.09-5.97.13-7.58.31-.58.04-1.07.4-1.34.94l-.36.8s-.36.22-.54.76h-.13s-1.25.58-1.74 1.6c-1.38.45-2.5 1.47-2.99 2.81l-.04.18 1.52.05 10.79.27.98.05 7.18.18 5.35.13h.4l4.86-.13 8.07-.22h.98l11.1-.31h.8l-.04-.18Zm-4.82-4.19s.05 0 .09.04c.27.13 1.07.58 1.47 1.29-.31-.09-.62-.13-.94-.13l-5.44-.05-.62-.05h-2.72l-.98-.04h-2.23l-6.73-.09h-.04c-.13 0-.31 0-.45.05 1.12-.49 2.72-.89 5.08-1.03 1.38-.09 2.72-.13 3.97-.18h.98c.8-.04 1.52-.04 2.23-.04.58 0 1.12 0 1.61.04.09-.04.18-.04.27-.04.13 0 .22 0 .31.04h.58c1.74.05 2.94.13 3.39.18h.18Zm-15.29-2.18c1.43-.4 3.17-.58 4.95-.62.31-.04.62-.04.94-.04h.49c2.68 0 5.22.22 6.6.36.54.04.94.36 1.16.85l.36.67h-14.31c-2.01 0-3.39.58-4.28 1.34.8-.98 2.1-2.01 4.1-2.54m.16 1.4h14.45l.04.04c.09.09.22.22.36.45-.4 0-1.2-.05-2.32-.09-.09-.05-.18-.05-.27-.05s-.18 0-.27.05c-.18-.05-.36-.05-.53-.05h-.05c-1.29-.04-2.99-.04-4.95 0h-.98c-1.2.05-2.5.09-3.88.18-3.79.22-5.71 1.07-6.69 1.96-.04 0-.09.04-.13.09.71-1.25 2.14-2.59 5.22-2.59m-26.04-.88c.22-.49.67-.8 1.16-.85 1.56-.18 4.5-.4 7.45-.31.36-.04.67 0 .98 0 1.65.05 3.26.22 4.55.62 2.1.58 3.43 1.65 4.28 2.68-.89-.8-2.27-1.47-4.41-1.47h-14.31l.31-.67Zm-.53.94.04-.04h14.49c2.99 0 4.46 1.29 5.13 2.5-.94-.85-2.81-1.74-6.73-1.96-1.25-.09-2.41-.13-3.52-.18h-1.03c-2.1-.04-3.92-.04-5.31 0h-.04c-.13 0-.31 0-.45.05h-.09c-.09-.05-.18-.05-.22-.05-.09 0-.18 0-.27.05h-.04c-1.07.04-1.87.09-2.27.09.09-.22.22-.36.31-.45m-.67.7h.13s.09-.05.13 0c.49-.09 1.65-.13 3.34-.18h.58c.09-.04.18-.04.27-.04.13 0 .22 0 .31.04 1.2-.04 2.63-.04 4.24 0h.98c1.12.05 2.32.09 3.57.18 2.36.13 3.97.54 5.08 1.03-.13-.05-.31-.05-.45-.05h-.04l-6.73.09h-1.78l-1.03.04h-3.21l-.54.05-5.44.05c-.31 0-.58.04-.89.13.4-.76 1.29-1.2 1.47-1.34m8.57 4.46h-.98l-10.34-.27-1.7-.04c.45-1.2 1.43-2.1 2.59-2.5h.13s.09-.04.13-.04c.31-.09.67-.13 1.03-.13l6.78-.09h.71l.54-.05h2.1l1.96-.04h1.11l5.53-.09h.04c1.12 0 2.1.62 2.54 1.6.04.04.04.09.04.13.04.05.04.09.04.13h.04c.04.22.13.45.13.67v1.03L237 66.84Zm37.28-.27-10.61.22-.94.05-12.35.31h-.58l-.04-.45.04-.31v-.05l.04-.09v-.13c0-.18.05-.36.13-.53v-.04s0-.09.04-.13l.04-.09s.04-.09.04-.13c.09-.13.18-.31.27-.45.54-.71 1.34-1.16 2.27-1.16h.04l5.57.09h1.12l2.36.04h1.7l.58.05h.58l6.82.09c.36 0 .71.05 1.03.13.09 0 .13.04.18.04s.09.05.13.05c1.16.4 2.1 1.29 2.59 2.45l-1.07.04ZM2.88 25.63c-.48-.32-.91-.84-1.27-1.54-.45-1.01-.67-1.98-.67-2.92 0-2.02.62-3.55 1.87-4.59 1.05-.88 2.41-1.32 4.07-1.32.62 0 1.42.11 2.38.32v3.27c-.74-.14-1.31-.22-1.71-.22-.93 0-1.6.22-2.01.65s-.61 1.15-.61 2.16c0 .85.22 1.51.65 1.98.43.48 1.03.72 1.79.72.1 0 .21 0 .31-.03 1.31-.2 2.48-.3 3.5-.3.16 0 .39 0 .7.03h.1v1.43l-1.61 2.08c-1.14.07-2.3.28-3.47.62-1.62.43-3.28 1.24-4.95 2.43L.01 27.21c.99-.63 1.94-1.16 2.88-1.59M18.3 8.49v15.47s0 .09.03.16l.03.03c.05.13.16.19.31.19h.96v3.48h-2.1c-.85 0-1.59-.31-2.23-.94q-.99-1.005-.99-2.4V8.5h3.99Z" class="cls-1"/><path d="M19.41 24.33h4.8v3.48h-4.8z" class="cls-1"/><path d="M24.03 24.33h4.8v3.48h-4.8z" class="cls-1"/><path d="M28.64 24.33h4.8v3.48h-4.8z" class="cls-1"/><path d="M33.25 24.33h4.8v3.48h-4.8z" class="cls-1"/><path d="M37.87 24.33h4.8v3.48h-4.8z" class="cls-1"/><path d="M44.45 29.06c.57 0 1.05.21 1.45.62s.6.92.6 1.51-.2 1.07-.6 1.48-.88.62-1.45.62-1.03-.21-1.42-.62c-.4-.41-.6-.91-.6-1.48s.2-1.1.6-1.51.87-.62 1.42-.62m6.69-13.66v8.69c0 .07 0 .15.03.24h1.3v3.48h-.8l-1.14-1.24h-.08c-.64.83-1.48 1.24-2.52 1.24h-5.42v-3.48h4.12c.17 0 .3-.05.39-.16.09-.09.13-.22.13-.38v-8.4h3.99Zm-2.05 13.66c.57 0 1.05.21 1.45.62s.6.92.6 1.51-.2 1.07-.6 1.48-.88.62-1.45.62-1.02-.21-1.41-.62-.58-.91-.58-1.48.19-1.1.58-1.51.86-.62 1.41-.62" class="cls-1"/><path d="M55.7 15.86c1.73-.52 3.22-.78 4.48-.78 2.07 0 3.83.68 5.26 2.03 1.31 1.26 1.97 2.8 1.97 4.62v2.75c0 .92-.31 1.7-.93 2.35-.64.67-1.41 1-2.31 1H52.25v-3.48h10.78c.24 0 .36-.13.36-.38v-1.78c0-1.19-.49-2.11-1.48-2.78q-1.17-.78-2.7-.78c-.95 0-2.13.19-3.52.57v-3.32Zm14.77 18.36c-.22-.54-.34-1.01-.34-1.4 0-.79.22-1.44.67-1.94s1.03-.76 1.74-.76c.52 0 1.05.08 1.61.24v1.7c-.43-.13-.75-.19-.96-.19-.66 0-.99.39-.99 1.16q0 .51.18.78c.17.27.44.41.8.41H75v.81l-.7.92h-4.77v-1.73h.93Zm4.18-25.73V26.8l-2.02 1.7h-2V8.49zm22.16 6.18v9.29c0 .11.03.2.1.27s.17.11.31.11h.88v3.48h-2.05c-.88 0-1.69-.36-2.41-1.08q-1.275 1.32-3.06 1.32h-.08c-1.73 0-3.08-.75-4.07-2.24-.8-1.17-1.19-2.56-1.19-4.18 0-1.98.6-3.62 1.81-4.91 1.09-1.17 2.44-1.75 4.07-1.75.88 0 1.75.19 2.62.57l1.06-.86h2Zm-6.68-5.21c.57 0 1.05.21 1.45.62s.6.91.6 1.49-.2 1.07-.6 1.49c-.4.41-.88.62-1.45.62s-1.03-.21-1.42-.62c-.4-.41-.6-.91-.6-1.49s.2-1.09.6-1.5c.4-.4.87-.61 1.42-.61m2.67 9.29c-.42-.11-.8-.16-1.17-.16-.76 0-1.36.27-1.79.81s-.65 1.29-.65 2.24c0 .9.24 1.64.71 2.21.47.58 1.09.86 1.85.86.29 0 .64-.04 1.04-.14v-5.83Zm1.97-9.29c.57 0 1.05.21 1.45.62s.6.91.6 1.49-.2 1.07-.6 1.49c-.4.41-.88.62-1.45.62s-1.02-.21-1.41-.62-.58-.91-.58-1.49.19-1.09.58-1.5.86-.61 1.41-.61" class="cls-1"/><path d="M97.93 24.33h4.79v3.48h-4.79z" class="cls-1"/><path d="M102.54 24.33h4.79v3.48h-4.79z" class="cls-1"/><path d="M107.16 24.33h4.79v3.48h-4.79z" class="cls-1"/><path d="M111.77 24.33h4.79v3.48h-4.79z" class="cls-1"/><path d="M116.38 24.33h4.79v3.48h-4.79z" class="cls-1"/><path d="M121 24.33h4.79v3.48H121z" class="cls-1"/><path d="M127.58 29.06c.57 0 1.05.21 1.45.62s.6.92.6 1.51-.2 1.07-.6 1.48-.88.62-1.45.62-1.03-.21-1.42-.62c-.4-.41-.6-.91-.6-1.48s.2-1.1.6-1.51.87-.62 1.42-.62m6.69-13.66v8.69c0 .07 0 .15.03.24h1.3v3.48h-.8l-1.14-1.24h-.08c-.64.83-1.48 1.24-2.51 1.24h-5.42v-3.48h4.12c.17 0 .3-.05.39-.16.09-.09.13-.22.13-.38v-8.4h3.99Zm-2.05 13.66c.57 0 1.05.21 1.45.62s.6.92.6 1.51-.2 1.07-.6 1.48-.88.62-1.45.62-1.02-.21-1.41-.62-.58-.91-.58-1.48.19-1.1.58-1.51.86-.62 1.41-.62" class="cls-1"/><path d="M135.38 24.33h4.79v3.48h-4.79z" class="cls-1"/><path d="M143.6 20.45c.64-1.98 1.76-3.42 3.37-4.32 1.14-.67 2.46-1 3.97-1 1.42 0 2.7.4 3.84 1.19 1.38.92 2.38 2.29 2.98 4.13l-.31.84c-.4.23-.92.68-1.58 1.32-.62.65-1.08 1.22-1.37 1.73h3.52v3.48h-6.09c-.41 0-.81-.22-1.19-.65h-.1c-.38.43-.8.65-1.27.65h-9.36v-3.48h6.87c-.28-.5-.73-1.06-1.35-1.67-.67-.7-1.21-1.16-1.61-1.38l-.31-.84Zm10.03-.17c-.26-.65-.74-1.12-1.45-1.4a3.7 3.7 0 0 0-1.43-.27c-.67 0-1.28.13-1.81.38-.6.29-1.01.72-1.22 1.3.35.22.84.71 1.48 1.49.73.86 1.19 1.57 1.4 2.11h.16c.24-.63.75-1.38 1.53-2.24q.855-1.02 1.35-1.35" class="cls-1"/><path d="M162.03 24.33c-.16-.81-.23-1.79-.23-2.94 0-2.09.66-3.72 1.97-4.89 1.07-.94 2.38-1.4 3.91-1.4 1.73 0 3.09.43 4.07 1.3 1.07.95 1.61 2.2 1.61 3.73v3.83c0 .11.03.2.1.27.09.07.19.11.31.11h.42v3.48h-1.58c-.79 0-1.5-.27-2.12-.81-.81 1.08-1.94 1.62-3.37 1.62s-2.6-.57-3.6-1.7h-.1l-.67.89h-4.9v-3.48h4.2Zm7.33-4.18q0-.615-.39-1.11c-.29-.32-.69-.49-1.19-.49-.64 0-1.14.27-1.5.8s-.54 1.26-.54 2.2c0 2.39.62 3.59 1.87 3.59.6 0 1.19-.27 1.76-.81v-4.19Z" class="cls-1"/><path d="M177.45 15.86c1.73-.52 3.22-.78 4.48-.78 2.07 0 3.83.68 5.26 2.03 1.31 1.26 1.97 2.8 1.97 4.62v2.75c0 .92-.31 1.7-.93 2.35-.64.67-1.41 1-2.31 1H174v-3.48h10.78c.24 0 .36-.13.36-.38v-1.78c0-1.19-.49-2.12-1.48-2.78q-1.17-.78-2.7-.78c-.95 0-2.13.19-3.52.57v-3.32Zm4.15 13.2c.55 0 1.03.21 1.43.62s.6.92.6 1.51-.2 1.07-.6 1.48-.87.62-1.43.62-1.05-.21-1.44-.62-.58-.91-.58-1.48.19-1.1.58-1.51.87-.62 1.44-.62M4.35 64.12v3.16c0 1.66.37 2.82 1.11 3.5s2.01 1.01 3.81 1.01c1.54 0 2.66-.22 3.38-.66q1.08-.66 1.41-2.31h-1.3l-1.71-2.21v-1.27h8.35v3.48h-1.27c-.23 2.3-1.2 4.02-2.93 5.16-1.33.86-2.93 1.3-4.8 1.3H8.12c-2.16 0-3.93-.56-5.31-1.67C1.17 72.28.35 70.34.35 67.8v-2l2.02-1.67h1.97Zm2.47 12.72c.55 0 1.03.21 1.43.62s.6.92.6 1.51-.2 1.07-.6 1.47c-.4.41-.87.61-1.43.61s-1.05-.2-1.44-.61c-.39-.4-.58-.89-.58-1.47s.2-1.1.58-1.51c.39-.41.87-.62 1.44-.62m4.64 0c.55 0 1.03.21 1.42.62.4.41.6.92.6 1.51s-.2 1.07-.6 1.47c-.4.41-.87.61-1.42.61s-1.05-.2-1.44-.61c-.39-.4-.58-.89-.58-1.47s.19-1.1.58-1.51.87-.62 1.44-.62" class="cls-1"/><path d="M21.44 61.12c0-1.53.53-2.77 1.61-3.72.97-.87 2.3-1.3 3.99-1.3 1.45 0 2.68.38 3.68 1.13q2.25 1.695 2.25 5.16c0 2.07-.48 3.8-1.45 5.18-.99 1.37-2.29 2.05-3.91 2.05-1.4 0-2.51-.54-3.32-1.62q-.93.81-2.1.81h-5.42v-3.48h4.28c.12 0 .22-.03.28-.11.07-.09.1-.18.1-.27v-3.83Zm3.99 4.21q.6.78 1.53.78c.93 0 1.12-.31 1.5-.92q.57-.915.57-2.43 0-1.62-.6-2.46c-.38-.5-.9-.76-1.56-.76-.43 0-.8.16-1.09.48a1.8 1.8 0 0 0-.36 1.11v4.18Zm24.03-15.84v15.09c0 .16 0 .41.03.76h1.3v3.48h-.99l-.96-1.24h-.08c-.31.41-.72.73-1.22.94-.41.2-.83.3-1.24.3h-9.62l-1.63-2.11v-1.38h5.7l-4.1-12.53h3.65l4.1 12.53h.7c.12 0 .22-.04.28-.11.05-.11.08-.2.08-.27V49.48h3.99Z" class="cls-1"/><path d="M80.61 56.4v9.07c0 .92-.32 1.7-.95 2.36s-1.39.98-2.27.98h-5.83l-1.09-1.27h-.08c-.64.85-1.48 1.27-2.51 1.27h-5.83l-1.09-1.27h-.08c-.64.85-1.48 1.27-2.51 1.27h-7.78v-3.48h6.63c.24 0 .36-.12.36-.38V59.5h3.99v4.24c0 .27 0 .69.03 1.27v.32h5.13c.24 0 .36-.12.36-.38v-7.02h3.99v6.26c0 .31 0 .68.03 1.13h5.13c.24 0 .36-.12.36-.38v-8.56h3.99Zm17.13-6.91v15.98c0 .88-.29 1.65-.88 2.3-.62.7-1.4 1.05-2.33 1.05h-9.56l-1.63-2.11v-1.38h5.7l-4.1-12.53h3.65l4.1 12.53h.7c.1 0 .2-.04.29-.14.05-.05.08-.13.08-.24V49.48h3.99Zm-7.33 25.73c-.23-.52-.34-.99-.34-1.4 0-.79.22-1.44.67-1.94s1.03-.76 1.74-.76c.5 0 1.04.08 1.61.24v1.7c-.42-.13-.74-.19-.96-.19-.66 0-.98.39-.98 1.16q0 .51.21.78c.16.27.42.4.78.4h1.81v.81l-.7.92h-4.77v-1.73h.93Zm14.9-25.73v18.3l-2.02 1.7h-1.97v-20zm30.15 6.91v9.07q0 1.245-.78 2.16c-.64.79-1.45 1.19-2.44 1.19h-14.26c-1.21 0-2.27-.4-3.19-1.21-1.17-1.04-1.76-2.39-1.76-4.02v-3.54l2.02-1.7h1.97v5.24q0 .81.54 1.32c.33.29.67.43 1.04.43h12.47c.26 0 .39-.12.39-.38V56.4h3.99Zm-13.5-.73c.55 0 1.03.21 1.43.62.4.42.6.91.6 1.48s-.2 1.09-.6 1.5-.87.61-1.43.61-1.05-.2-1.44-.61c-.39-.4-.58-.9-.58-1.5s.19-1.07.58-1.48.87-.62 1.44-.62m2.3-3.81c.5 0 .93.19 1.28.57s.53.83.53 1.35-.18.97-.53 1.34-.78.55-1.28.55-.93-.18-1.3-.55-.54-.81-.54-1.34.18-.97.53-1.35.79-.57 1.31-.57m2.31 3.81c.55 0 1.03.21 1.42.62.4.42.6.91.6 1.48s-.2 1.09-.6 1.5-.87.61-1.42.61-1.05-.2-1.44-.61c-.39-.4-.58-.9-.58-1.5s.19-1.07.58-1.48.87-.62 1.44-.62m16.46-6.18v18.3l-2.02 1.7h-1.97v-20zm9.43 6.91v8.94h1.3v3.48h-1.35c-.19 2.07-1.05 3.71-2.59 4.91-1.3.99-2.82 1.49-4.56 1.49-.19 0-.49 0-.91-.03l-1.63-2.13v-1.43c.05.02.15.04.28.05.45.09.85.14 1.19.14 1.43-.04 2.5-.41 3.19-1.13.71-.74 1.06-1.86 1.06-3.38V56.4z" class="cls-1"/><path d="M153.58 65.34h4.79v3.48h-4.79z" class="cls-1"/><path d="M158.19 65.34h4.79v3.48h-4.79z" class="cls-1"/><path d="M171.46 56.4v8.69c0 .07 0 .15.03.24h1.27v3.48h-.8l-1.14-1.24h-.05c-.66.83-1.5 1.24-2.54 1.24h-5.42v-3.48h4.15c.16 0 .28-.05.36-.16.1-.09.16-.22.16-.38v-8.4h3.99Zm-6.27-5.94c.55 0 1.03.21 1.43.62s.6.91.6 1.49-.2 1.07-.6 1.49c-.4.41-.87.62-1.43.62s-1.05-.21-1.44-.62-.58-.91-.58-1.49.19-1.09.58-1.5c.39-.4.87-.61 1.44-.61m4.64 0c.55 0 1.03.21 1.43.62s.6.91.6 1.49-.2 1.07-.6 1.49c-.4.41-.87.62-1.43.62s-1.05-.21-1.44-.62-.58-.91-.58-1.49.19-1.09.58-1.5c.39-.4.87-.61 1.44-.61" class="cls-1"/><path d="M181.23 49.49v15.98c0 .79-.24 1.5-.73 2.13-.66.81-1.49 1.22-2.51 1.22h-5.42v-3.48h4.28c.1 0 .19-.03.26-.08.09-.07.13-.17.13-.3V49.49zm7.57 0v18.3l-2.02 1.7h-1.97v-20z" class="cls-1"/></g></g></svg>