<svg xmlns="http://www.w3.org/2000/svg" width="127" height="46" fill="none"><g fill="#fff" clip-path="url(#a)"><path d="M4.686 28.365c-.015.149-.01.303-.055.447-.214.735-.422 1.476-.666 2.201-.452 1.352-.94 2.694-1.396 4.04-.333.98-.602 1.978-.7 3.012-.08.845-.08 1.694.317 2.485.591 1.177 1.69 1.585 2.912 1.297.97-.23 1.754-.806 2.515-1.412 1.167-.934 2.087-2.107 3.06-3.225 1.596-1.824 3.166-3.672 4.811-5.456 1.362-1.476 2.907-2.758 4.651-3.777a10.3 10.3 0 0 1 4.12-1.371c.7-.075 1.391.064 2.022.347.944.428 1.859.925 2.778 1.407.76.402 1.51.825 2.266 1.242.035.02.07.03.14.06-.06-.259-.11-.492-.17-.72-.348-1.273-.482-2.565-.348-3.877.095-.94.224-1.868.746-2.688.894-1.402 2.166-2.172 3.821-2.35.91-.095 1.79.049 2.654.263 1.978.487 3.945 1.013 5.923 1.525 1.367.353 2.723.74 4.105 1.044.954.208 1.928.318 2.897.442.775.1 1.56.16 2.34.234.294.03.398.154.299.437-.229.65-.482 1.292-.726 1.938q-.106.285-.218.561c-.125.314-.284.423-.622.423a9.3 9.3 0 0 0-3.245.551c-.034.686-.124 1.362.03 2.038.209.924.795 1.486 1.734 1.655 1.596.288 3.012-.095 4.289-1.079.333-.258.482-.601.512-.979.07-.78.144-1.565.12-2.35a153 153 0 0 0-.25-4.776c-.104-1.63-.238-3.254-.352-4.884-.085-1.193-.164-2.39-.249-3.583-.09-1.342-.183-2.684-.263-4.025-.045-.8-.08-1.6-.094-2.4-.02-.915-.14-1.804-.477-2.67-.075-.188 0-.461.074-.67.288-.81.601-1.61.914-2.415.035-.085.125-.144.19-.219.069.07.168.124.208.204.244.562.482 1.123.7 1.7a323 323 0 0 1 1.626 4.333c.169.462.298.944.412 1.426.035.149-.035.323-.055.487-.149-.06-.332-.08-.447-.184-.338-.308-.65-.641-.974-.969-.035-.04-.054-.09-.084-.14l-.075.03c-.015.1-.044.2-.04.299.09 1.302.19 2.604.284 3.906.07.939.129 1.878.198 2.812.105 1.436.229 2.868.309 4.304.114 2.087.323 4.174.203 6.266-.104 1.809-.372 3.583-1.073 5.267-.502 1.208-1.163 2.316-2.201 3.156-.86.696-1.85.895-2.932.765-.74-.09-1.422-.308-2.008-.785-.432-.353-.73-.8-.96-1.302-.014-.03-.029-.064-.093-.094-.015.203-.05.407-.04.611.179 3.09 1.64 5.377 4.333 6.877.974.542 2.047.805 3.15.93 2.117.233 4.18-.055 6.207-.686 3.19-.989 6.078-2.574 8.796-4.487 1.476-1.039 2.897-2.147 4.194-3.404.179-.174.333-.373.507-.547.383-.378.348-.8.129-1.237-.273-.557-.745-.905-1.282-1.173-.74-.368-1.53-.497-2.346-.507-.83-.01-1.664 0-2.5-.005-1.246-.015-2.24-.82-2.553-2.027-.239-.92-.144-1.824.139-2.709a7.5 7.5 0 0 1 1.853-3.03c.83-.84 1.814-1.01 2.917-.657 1.109.358 1.948 1.079 2.674 1.943 1.262 1.501 2.002 3.235 2.236 5.183.189 1.59.144 3.166-.293 4.716-.358 1.267-1.059 2.33-1.963 3.285-1.665 1.759-3.543 3.26-5.54 4.616-1.546 1.049-3.146 1.998-4.85 2.763-1.844.83-3.758 1.446-5.785 1.585-2.047.145-4.05-.05-5.923-.994-1.536-.78-2.664-1.967-3.47-3.473-.824-1.546-1.236-3.215-1.301-4.954-.04-1.014-.02-2.038.055-3.052.054-.755.248-1.5.372-2.246.095-.551.174-1.103.269-1.654.024-.15.064-.299.114-.502-.482.223-.914.407-1.332.62-2.022 1.024-4.03 2.073-6.057 3.082-1.66.83-3.355 1.585-5.159 2.042-.636.16-1.297.234-1.947.328-.145.02-.21.065-.249.209a8 8 0 0 1-.333.964c-.035.09-.159.144-.243.218-.065-.084-.16-.159-.18-.248-.089-.368-.153-.745-.228-1.108-1.053-.547-2.152-1.103-3.235-1.69-.72-.392-1.406-.854-2.132-1.242-1.347-.726-2.778-.825-4.248-.457-1.645.407-3.057 1.272-4.383 2.286-1.8 1.376-3.34 3.016-4.796 4.745-1.252 1.486-2.475 2.992-3.732 4.473-.695.82-1.45 1.585-2.385 2.137-1.864 1.103-3.792.75-5.183-.925C1.307 41.891.9 40.405.959 38.775c.06-1.49.437-2.912.949-4.298.318-.85.686-1.68 1.028-2.52.015-.034.025-.064.04-.104-.84.06-1.292-.293-1.505-1.192-.204-.86-.2-1.73-.055-2.594.219-1.307.656-2.55 1.133-3.782.487-1.267.696-2.584.556-3.93-.149-1.407-.725-2.66-1.58-3.777-.382-.497-.81-.96-1.227-1.432-.229-.253-.259-.347-.095-.64.19-.338.378-.681.572-1.014.124-.219.199-.229.397-.065a7.5 7.5 0 0 1 1.715 2.042c.65 1.148.964 2.39 1.083 3.698.179 1.952-.199 3.816-.894 5.63-.348.91-.696 1.823-.865 2.793-.104.59-.07 1.177.154 1.739.258.636.885.78 1.357.278.273-.288.477-.646.71-.974.065-.094.12-.194.18-.288l.084.015zm41.459-2.445c-.05-.035-.065-.05-.085-.055-2.544-.79-5.098-1.565-7.702-2.137-1.014-.223-2.033-.432-3.081-.452-1.387-.03-2.46.557-3.245 1.675-.19.268-.323.576-.19.939.513 1.381 1.015 2.763 1.522 4.15.044.119.099.168.228.178.73.05 1.461.02 2.182-.129 1.525-.318 2.976-.865 4.398-1.486 1.605-.7 3.2-1.426 4.8-2.142l1.178-.536zm26.67-.239c-.388-.571-.795-1.053-1.327-1.42a2.66 2.66 0 0 0-2.032-.463c-.348.06-.607.258-.661.537-.06.333.034.63.323.81.213.134.457.248.7.288.428.074.865.094 1.297.124.547.04 1.099.075 1.695.114zm46.597 9.561c-.288.418-.567.865-.89 1.282-.67.865-1.495 1.536-2.559 1.864-1.123.348-2.256.358-3.354-.085-1.009-.407-1.526-1.237-1.749-2.26-.07-.319-.09-.647-.134-.97-.035-.253-.14-.318-.358-.194a5 5 0 0 0-.547.393 17.6 17.6 0 0 1-6.028 3.15c-1.277.383-2.584.542-3.915.403a9.5 9.5 0 0 1-2.892-.755 37 37 0 0 1-2.838-1.392c-1.401-.77-2.29-1.992-2.897-3.443-.1-.244-.189-.492-.283-.74-.025-.07-.07-.135-.14-.254-.124.164-.228.278-.308.412-.655 1.084-1.282 2.182-1.962 3.25-.637.994-1.461 1.79-2.585 2.231-.655.259-1.336.279-2.022.234-.78-.055-1.54-.209-2.211-.641-.84-.542-1.332-1.352-1.685-2.256-.432-1.103-.646-2.251-.706-3.429a845 845 0 0 1-.427-8.691c-.084-1.918-.114-3.841-.189-5.76-.06-1.64-.139-3.28-.223-4.92-.05-.968-.08-1.942-.204-2.906a67 67 0 0 0-.671-4.085c-.164-.835-.442-1.645-.646-2.475-.055-.218-.07-.477 0-.69.229-.766.492-1.516.75-2.272.03-.094.13-.163.194-.243.075.075.17.134.219.224.457.82.75 1.704.949 2.613a56 56 0 0 1 .651 3.524c.323 2.161.442 4.343.522 6.524.119 3.255.218 6.515.328 9.77.07 2.042.139 4.09.223 6.132.03.8.06 1.6.154 2.395.1.83.353 1.62.785 2.346.448.755 1.119 1.163 1.993 1.242 1.044.095 2.063.02 3.022-.452.904-.442 1.575-1.138 2.136-1.963.76-1.113 1.546-2.216 2.331-3.32.094-.129.214-.248.348-.337.263-.18.472-.085.527.223.034.184.04.373.04.557.004 1.332.56 2.385 1.62 3.17 1.36 1.01 2.837 1.81 4.482 2.266 1.048.294 2.126.343 3.21.338 1.819-.015 3.548-.457 5.228-1.113a18.9 18.9 0 0 0 5.023-2.892c.115-.094.239-.189.373-.234.114-.04.293-.06.363 0 .079.075.114.254.089.373-.054.298-.164.582-.228.88-.055.263-.1.536-.11.805-.034.854.373 1.476 1.243 1.72 1.54.431 3.026.337 4.358-.677.631-.482 1.058-1.128 1.481-1.784.397-.62.785-1.247 1.192-1.863.1-.15.239-.288.388-.393.263-.184.472-.064.477.254 0 .129-.01.263-.035.392-.079.378-.144.765-.268 1.133-.139.408-.05.75.189 1.074.849 1.157 2.276 1.346 3.289.919a1 1 0 0 0 .125-.065c.427-.268.442-.397.089-.755-.04-.04-.074-.08-.114-.114-.224-.214-.318-.443-.209-.77.253-.756.462-1.526.706-2.286.034-.115.159-.21.238-.309.124.105.298.19.368.323.343.701.611 1.427.581 2.227-.044 1.098-.213 2.161-.695 3.16-.472.974-1.163 1.715-2.232 2.048q-1.939.603-3.185-.984c-.278-.353-.522-.73-.775-1.079z"/><path d="M62.186 8.214c0 .393-.02.726 0 1.049.094 1.262.198 2.524.303 3.786.134 1.625.273 3.25.407 4.88.12 1.441.224 2.882.338 4.324.07.889.15 1.779.219 2.673.074.994.149 1.983.194 2.977.04.844.074 1.694.044 2.539-.084 2.385-.517 4.7-1.52 6.887-.095.21-.229.393-.373.641-.16-.243-.15-.452-.134-.65.04-.448.109-.895.129-1.347.055-1.188.14-2.376.114-3.563-.03-1.382-.159-2.763-.253-4.145-.11-1.59-.219-3.18-.338-4.765-.15-2.023-.313-4.045-.467-6.068-.144-1.868-.293-3.732-.418-5.6-.109-1.67-.183-3.34-.283-5.004a7 7 0 0 0-.457-2.082c-.08-.219-.02-.527.064-.76.279-.796.592-1.58.905-2.366.035-.085.124-.14.189-.209.07.07.164.124.199.209.293.69.59 1.381.86 2.082a293 293 0 0 1 1.49 3.96c.169.458.298.93.412 1.402.035.14-.034.303-.06.457-.138-.05-.312-.06-.417-.154-.332-.293-.636-.616-.949-.924-.06-.055-.11-.12-.203-.224zm22.476 4.746c.198-.552.392-1.108.6-1.655.09-.238.225-.462.309-.7.085-.239.243-.348.467-.428 3.126-1.153 6.252-2.316 9.377-3.468 2.892-1.069 5.784-2.142 8.682-3.21 1.967-.731 3.94-1.457 5.908-2.187.09-.03.174-.065.268-.08.085-.014.239-.03.254 0 .04.09.05.22.015.309-.134.347-.288.685-.438 1.023a2 2 0 0 1-.059.124c-.194.413-.467.696-.929.865-2.346.85-4.682 1.734-7.012 2.619-1.71.65-3.414 1.317-5.118 1.978-1.924.75-3.842 1.5-5.76 2.26-1.774.701-3.543 1.417-5.312 2.128-.393.159-.79.313-1.183.472-.02-.02-.044-.035-.064-.055zm-62.683.174c.228-.94.586-1.794.994-2.629.035-.07.139-.12.218-.149q1.983-.746 3.966-1.476c1.46-.542 2.922-1.078 4.383-1.62q3.39-1.251 6.783-2.51c2.032-.755 4.07-1.51 6.102-2.26 1.024-.378 2.053-.756 3.081-1.123.1-.035.219-.015.333-.015 0 .119.025.253-.02.352-.218.497-.457.984-.69 1.471-.105.214-.284.333-.507.413-2.237.835-4.473 1.665-6.704 2.514q-3.433 1.306-6.853 2.649c-2.22.87-4.442 1.754-6.658 2.634-1.427.566-2.848 1.143-4.274 1.719-.035.015-.075.015-.15.035zM.805 9c.462-.309.904-.642 1.386-.915 1.456-.825 2.932-1.625 4.393-2.44a5 5 0 0 0 .542-.358c.233-.169.218-.343-.06-.432a4.8 4.8 0 0 0-1.014-.229 26 26 0 0 0-4.492-.06 5 5 0 0 1-.745 0C.59 4.553.54 4.478.65 4.29c.412-.721.8-1.456 1.262-2.142.392-.582 1.038-.78 1.704-.825a25.5 25.5 0 0 1 4.264.05c.646.06 1.297.139 1.903.402.482.209.775.537.432 1.098-.472.766-.934 1.54-1.48 2.246-.512.656-1.118 1.243-1.71 1.84-.472.476-1.103.685-1.724.879-1.257.392-2.525.75-3.787 1.118-.213.06-.437.094-.656.144l-.05-.095zm121.564-2.237c.049-.233.094-.472.154-.705.293-1.188.561-2.38.904-3.558.119-.403.423-.75.661-1.114.085-.124.214-.223.343-.313.378-.263.74-.253 1.088.05.363.313.671.69.746 1.178.064.442-.095.86-.333 1.227-.095.14-.229.154-.353.02-.129-.144-.254-.293-.388-.437-.427-.462-.864-.433-1.118.139a12 12 0 0 0-.651 1.908c-.238.914-.353 1.864-.621 2.768-.611 2.062-1.709 3.807-3.523 5.049-1.088.745-2.172 1.51-3.394 2.012-1.054.433-2.127.815-3.195 1.213-.254.094-.517.164-.776.238-.049.015-.104 0-.228 0 .114-.114.179-.203.258-.253.557-.343 1.123-.666 1.675-1.009 2.022-1.272 4.055-2.534 6.057-3.831.84-.542 1.541-1.257 2.157-2.043a.32.32 0 0 0 .055-.183c0-.622-.169-1.213-.398-1.784-.328-.82-.681-1.63-1.033-2.44a1.4 1.4 0 0 0-.239-.343c-.144-.16-.293-.154-.427.025-.14.189-.318.223-.517.149-.547-.204-.949-.587-1.238-1.079-.059-.104-.039-.298.02-.417.204-.393.428-.775.661-1.148.234-.368.323-.392.756-.268.665.189 1.118.65 1.495 1.197.656.95.999 2.023 1.218 3.146.04.199.074.402.114.601q.03.001.06.01zm-18.352 20.563c-.01.13-.005.258-.03.388-.184.929-.392 1.853-.889 2.678-.184.303-.408.572-.731.736-.666.328-1.391.05-1.719-.666-.343-.756-.388-1.566-.358-2.376.045-1.436.467-2.792.929-4.139.338-.989.741-1.958.925-2.996.343-1.973.059-3.832-.92-5.581-.556-.999-1.262-1.878-2.062-2.693-.283-.289-.298-.413-.104-.756.198-.352.392-.705.591-1.058.16-.278.239-.298.477-.095a8.15 8.15 0 0 1 2.331 3.156c.83 2.008.969 4.09.661 6.221-.194 1.332-.646 2.585-1.113 3.837-.348.934-.701 1.878-.781 2.887-.039.522.01 1.038.204 1.535.244.627.964.94 1.521.323.298-.328.526-.725.78-1.093.074-.104.139-.213.209-.323.024.005.054.015.079.02zM70.171 14.873a238 238 0 0 1-.904 1.705c-.03.054-.07.104-.1.159-.099.198-.218.203-.392.08a118 118 0 0 0-1.864-1.318 12 12 0 0 0-.725-.467c-.14-.08-.16-.169-.09-.308.378-.765.746-1.536 1.128-2.3.13-.264.224-.299.477-.135.865.562 1.72 1.133 2.6 1.72.153-.309.327-.667.501-1.024.13-.264.254-.532.383-.795.09-.184.224-.259.412-.13l2.535 1.735c.194.134.213.323.124.517a47 47 0 0 1-.676 1.45c-.114.23-.253.443-.392.662-.22.357-.249.352-.587.119-.77-.542-1.545-1.074-2.316-1.605-.04-.025-.08-.045-.124-.07zM23.132 42.597c-.323.606-.641 1.212-.964 1.809-.154.283-.214.283-.482.094-.815-.566-1.63-1.138-2.455-1.684-.209-.14-.229-.254-.13-.453.354-.705.696-1.42 1.05-2.126.173-.353.262-.388.58-.18.845.552 1.675 1.119 2.53 1.69.134-.278.293-.596.447-.91.144-.292.279-.59.423-.879.134-.263.228-.303.472-.139.83.557 1.644 1.133 2.47 1.7.193.134.238.308.148.506a89 89 0 0 1-.84 1.755c-.079.169-.188.323-.288.477-.149.233-.213.233-.447.074q-1.215-.843-2.43-1.68c-.03-.02-.064-.04-.08-.05zM12.413 16.553c.075-.368.14-.74.229-1.108.228-.964.437-1.938.715-2.888a3.3 3.3 0 0 1 .94-1.535c.471-.432.953-.432 1.39.035.214.228.398.502.537.78.085.174.1.412.07.606-.04.264-.13.527-.244.77-.139.304-.283.314-.506.075-.135-.144-.249-.303-.388-.432-.393-.373-.735-.358-.984.114a7.4 7.4 0 0 0-.596 1.53c-.254.984-.433 1.983-.666 2.972-.09.383-.249.745-.388 1.118a.9.9 0 0 1-.203.308c-.07.07-.174.105-.264.154-.05-.09-.12-.179-.139-.273-.104-.467-.14-.96-.303-1.401-.338-.915-.74-1.804-1.123-2.704-.04-.099-.114-.183-.18-.268-.158-.199-.332-.194-.486.01-.124.164-.303.179-.462.124-.592-.203-1.014-.611-1.302-1.163-.035-.064-.025-.179.01-.243q.402-.707.82-1.406c.08-.135.198-.18.353-.16.536.06.969.324 1.331.701.641.671 1.049 1.481 1.317 2.356.194.626.328 1.272.487 1.908.015.005.03.015.045.02zm98.914 28.578c.209-.507.392-.969.591-1.431a.4.4 0 0 1 .214-.189c1.779-.66 3.563-1.312 5.347-1.968 1.461-.536 2.922-1.078 4.383-1.615a1029 1029 0 0 1 4.259-1.56c.084-.03.173-.035.318-.06-.035.145-.045.249-.085.343-.363.875-.368.865-1.262 1.203-2.47.934-4.945 1.863-7.409 2.817-2.082.805-4.15 1.64-6.227 2.46-.015.005-.03 0-.119.01zm-68.099-2.708q-.066.084-.14.169c-1.013 1.024-2.24 1.615-3.667 1.799-.616.08-1.232.164-1.853.01-1.014-.254-1.496-1.029-1.287-2.053.163-.81.566-1.49 1.113-2.087.6-.65 1.212-1.292 1.823-1.933.274-.288.239-.407-.149-.512-.884-.243-1.769-.362-2.638.065-.02.01-.045 0-.105 0 .01-.075 0-.144.03-.194.16-.298.308-.611.497-.89.214-.317.547-.466.92-.536a4.14 4.14 0 0 1 2.116.134c.592.199.8.646.592 1.233-.229.646-.671 1.148-1.128 1.64-.627.67-1.278 1.316-1.904 1.987a2.6 2.6 0 0 0-.422.606c-.259.507-.075.92.467 1.099.611.203 1.237.193 1.868.164 1.153-.055 2.272-.309 3.375-.641.149-.045.308-.065.467-.1l.03.05zM19.171 18.928c.418.413.805.76 1.148 1.143.517.571.671 1.262.562 2.018-.045.308-.1.61-.154.919-.14.805-1.119 1.555-1.894 1.64-.164.02-.328.044-.487.03-.7-.07-1.073-.507-1.068-1.327 0-.447.084-.895.169-1.337.318-1.59.845-3.11 1.625-4.537.09-.164.228-.313.378-.427.074-.055.228-.015.342-.02 0 .11.035.223 0 .318-.203.542-.427 1.078-.626 1.575zm-.636 1.645c-.328.65-.571 1.252-.586 1.918-.01.442.164.611.611.576.621-.044 1.133-.347 1.61-.72.243-.189.248-.298.055-.537a1.3 1.3 0 0 0-.214-.213c-.477-.338-.959-.671-1.47-1.029zM65.659 8.935c.164-.115.318-.234.487-.338 1.347-.815 2.703-1.615 4.045-2.44a10 10 0 0 0 1.953-1.56c-.199-.125-.393-.239-.572-.368-.74-.522-.88-1.153-.422-1.938.313-.537.755-.95 1.337-1.178.507-.199.865.02.974.562.114.566-.015 1.113-.17 1.65-.074.253-.054.377.19.536.62.403.63.393.273 1.078-.09.17-.204.323-.303.482-.224-.173-.427-.332-.636-.491-.045-.03-.095-.055-.16-.09-1.778 2.296-4.283 3.374-6.946 4.19-.015-.03-.035-.06-.05-.09zm7.071-5.536c0-.288.01-.537 0-.775-.01-.214-.094-.398-.338-.438-.188-.03-.63.184-.675.338a.32.32 0 0 0 .034.234c.244.303.582.467.98.641M41.394 13.775c-.16.373-.298.75-.477 1.103-.229.447-.497.88-.75 1.312-.12.204-.2.214-.393.08a230 230 0 0 0-2.55-1.765c-.153-.104-.193-.218-.119-.367q.567-1.17 1.148-2.34c.085-.175.224-.22.383-.11q1.304.892 2.594 1.809c.07.05.094.159.164.278m52.282 28.171c-.13.323-.224.636-.368.924-.273.522-.576 1.029-.864 1.546-.105.189-.22.193-.393.07q-1.274-.901-2.564-1.78c-.14-.094-.174-.189-.105-.328.378-.775.75-1.55 1.133-2.32.11-.224.23-.269.433-.13.85.572 1.69 1.158 2.524 1.745.085.06.13.173.209.278zM93.13 21.73c-.02.82-.155 1.61-.448 2.376-.045.114-.09.239-.159.333-.055.07-.154.104-.228.154-.03-.09-.09-.184-.085-.268.03-.348.085-.691.12-1.039.163-1.605-.329-3.026-1.303-4.274-.517-.655-1.118-1.242-1.694-1.848-.219-.234-.254-.328-.095-.606.16-.293.328-.582.487-.875.085-.159.19-.194.333-.084 1.516 1.152 2.535 2.623 2.873 4.522.094.531.134 1.073.203 1.615zm32.509-1.64c-.01.135-.01.27-.04.398-.154.8-.343 1.596-.756 2.306a2.2 2.2 0 0 1-.347.462c-.622.631-1.596.457-1.973-.343-.303-.636-.323-1.321-.298-2.007.079-2.346.869-4.472 2.007-6.49.055-.1.124-.184.189-.278.02.01.04.015.055.024-.025.12-.045.244-.085.363-.348 1.173-.72 2.34-1.038 3.519-.244.894-.398 1.808-.174 2.738.049.198.134.402.248.566.249.368.765.457 1.079.144.323-.323.571-.725.849-1.098.08-.104.139-.224.209-.338l.075.025zM16.24 8.095c.153-.184.298-.368.457-.547.785-.88 1.585-1.749 2.181-2.777.164-.279.303-.612.328-.925.06-.666-.398-1.014-1.049-.83-.223.065-.427.204-.645.303-.075.035-.165.045-.249.065 0-.08-.02-.159-.01-.233q.074-.695.422-1.292c.383-.651 1.173-.99 1.854-.796.507.145.81.587.855 1.178.074 1.014-.298 1.884-.805 2.718a9.2 9.2 0 0 1-3.032 3.066c-.084.05-.174.09-.258.135-.015-.02-.035-.04-.05-.06zm32.807-.373c-.144.448-.308.89-.433 1.342-.278 1.009-.576 2.013-.8 3.031-.114.532-.1 1.099.1 1.635.223.616.825.77 1.282.308.248-.253.432-.566.646-.85.054-.074.114-.149.169-.223l.074.03c-.035.204-.064.412-.11.616-.143.646-.317 1.282-.68 1.844-.293.457-.69.72-1.252.606-.547-.114-.78-.527-.904-1.019-.2-.785-.14-1.575-.035-2.36.233-1.69.85-3.245 1.69-4.721.049-.09.114-.179.168-.263.03.01.055.024.085.034zM9.963 24.484c-.1.313-.214.626-.303.944-.268.964-.532 1.923-.78 2.892-.12.472-.095.96.035 1.431.08.283.208.532.531.621.323.09.547-.074.73-.288.155-.179.284-.387.418-.586.08-.115.15-.229.224-.348.02 0 .04.01.06.015-.005.094 0 .189-.015.278-.13.686-.289 1.367-.666 1.968-.333.527-.8.706-1.307.502-.368-.15-.527-.462-.626-.815-.17-.596-.145-1.203-.085-1.804.164-1.655.75-3.175 1.57-4.607.045-.08.095-.149.145-.228.024.01.05.025.074.035zm67.399 12.473c-.1.308-.209.61-.293.919-.269.954-.542 1.908-.78 2.867a2.8 2.8 0 0 0 .059 1.61c.194.562.725.701 1.148.289.149-.145.268-.319.392-.487.115-.164.214-.338.319-.507q.03.001.06.01c0 .074.01.154 0 .228-.13.696-.29 1.382-.662 1.998-.338.551-.82.735-1.337.512a.95.95 0 0 1-.566-.696 6.4 6.4 0 0 1-.15-1.262c0-1.431.393-2.773.98-4.06.179-.388.383-.76.576-1.143.055-.1.12-.194.18-.293.024.01.054.015.079.025zM26.968 19.251c.184-.204.363-.412.547-.616.596-.656 1.207-1.302 1.65-2.072a1.6 1.6 0 0 0 .223-.651c.045-.487-.283-.77-.765-.671-.224.045-.433.159-.646.238-.06.02-.124.03-.189.045-.005-.064-.03-.134-.02-.194.065-.407.179-.805.432-1.143.328-.442.78-.6 1.312-.541.497.054.785.447.81 1.058.03.686-.208 1.292-.541 1.874a7.36 7.36 0 0 1-2.58 2.633c-.059.04-.129.065-.198.095l-.04-.05zm81.874-6.181c.159-.18.284-.324.408-.468.591-.72 1.192-1.431 1.764-2.161.194-.249.343-.542.288-.885-.07-.422-.397-.636-.845-.522-.213.055-.412.164-.616.259-.124.054-.214.044-.184-.11.085-.452.189-.894.492-1.262.368-.447.845-.561 1.382-.462.283.05.482.238.586.517.204.522.149 1.048-.045 1.55-.591 1.54-1.65 2.684-3.046 3.528q-.029.015-.064.03h-.12zM85.834 6.634c.18-.204.368-.397.537-.606.532-.646 1.078-1.282 1.575-1.953.174-.234.274-.562.303-.855.045-.378-.223-.631-.606-.596-.283.03-.556.159-.83.258-.139.05-.218.06-.194-.114.08-.532.22-1.039.637-1.416.347-.318.77-.398 1.217-.308.432.089.68.472.71 1.003.04.746-.238 1.397-.606 2.018a7.3 7.3 0 0 1-2.5 2.52c-.064.04-.128.069-.198.104-.02-.02-.035-.04-.055-.055zm26.447 20.18c.134-.154.263-.313.403-.467.641-.696 1.292-1.386 1.784-2.201.154-.259.298-.527.228-.855-.069-.338-.248-.532-.591-.497-.274.025-.542.154-.81.239-.07.02-.139.03-.209.04 0-.065-.005-.13 0-.194a2.4 2.4 0 0 1 .403-1.104c.347-.491.839-.65 1.411-.556.353.06.571.293.666.64.179.667.025 1.298-.269 1.894a7.24 7.24 0 0 1-2.802 3.032 1 1 0 0 1-.125.064c-.014.005-.029 0-.044.005-.015-.015-.03-.025-.045-.04"/></g><defs><clipPath id="a"><path fill="#fff" d="M.094 0H126.43v45.131H.094z"/></clipPath></defs></svg>